<svg width="1240" height="844" viewBox="0 0 1240 844" fill="none" xmlns="http://www.w3.org/2000/svg">
<path d="M24 122.579C24 122.579 390 -88.5108 337.5 199.579C285 487.668 337.5 685.079 337.5 685.079C361 799.079 487.5 832.079 622 748.579" stroke="black" stroke-width="96"/>
<path d="M407 328.51C407 328.51 698.699 149.617 672.9 371.311C647.1 593.005 672.9 716.841 672.9 716.841C693.806 797.974 806.344 821.46 926 762.034" stroke="black" stroke-width="96"/>
<path d="M686 316.51C686 316.51 990.699 149.617 964.9 371.311C939.1 593.005 964.9 716.841 964.9 716.841C985.806 797.974 1098.34 821.46 1218 762.034" stroke="black" stroke-width="96"/>
</svg>
